<svg width="45" height="45" viewBox="0 0 45 45" fill="none" xmlns="http://www.w3.org/2000/svg">
<path d="M37.8 9.37501C35.8125 7.38227 33.1778 6.16602 30.3719 5.94595C27.566 5.72588 24.774 6.5165 22.5 8.17501C20.1144 6.40058 17.145 5.59596 14.1899 5.9232C11.2347 6.25044 8.51335 7.68521 6.57373 9.9386C4.6341 12.192 3.62032 15.0966 3.73653 18.0675C3.85274 21.0385 5.09031 23.855 7.20003 25.95L18.8438 37.6125C19.8188 38.5721 21.132 39.1099 22.5 39.1099C23.8681 39.1099 25.1812 38.5721 26.1563 37.6125L37.8 25.95C39.9892 23.7474 41.218 20.768 41.218 17.6625C41.218 14.557 39.9892 11.5776 37.8 9.37501ZM35.1563 23.3625L23.5125 35.0063C23.38 35.14 23.2223 35.2462 23.0485 35.3187C22.8748 35.3912 22.6883 35.4285 22.5 35.4285C22.3117 35.4285 22.1253 35.3912 21.9515 35.3187C21.7777 35.2462 21.62 35.14 21.4875 35.0063L9.84378 23.3063C8.37332 21.8032 7.54992 19.784 7.54992 17.6813C7.54992 15.5785 8.37332 13.5594 9.84378 12.0563C11.3422 10.5769 13.3631 9.74732 15.4688 9.74732C17.5745 9.74732 19.5954 10.5769 21.0938 12.0563C21.2681 12.232 21.4755 12.3715 21.7039 12.4667C21.9324 12.5619 22.1775 12.6109 22.425 12.6109C22.6726 12.6109 22.9176 12.5619 23.1461 12.4667C23.3746 12.3715 23.582 12.232 23.7563 12.0563C25.2547 10.5769 27.2756 9.74732 29.3813 9.74732C31.487 9.74732 33.5079 10.5769 35.0063 12.0563C36.4969 13.5397 37.3474 15.5479 37.3754 17.6507C37.4035 19.7535 36.6069 21.7836 35.1563 23.3063V23.3625Z" fill="#400101"/>
</svg>
