<svg width="50" height="50" viewBox="0 0 50 50" fill="none" xmlns="http://www.w3.org/2000/svg">
<path d="M16.1457 23.4375C16.1457 20.2813 13.5728 17.7083 10.4165 17.7083C7.26025 17.7083 4.68734 20.2813 4.68734 23.4375C4.68734 26.5938 7.26025 29.1667 10.4165 29.1667C13.5728 29.1667 16.1457 26.5938 16.1457 23.4375ZM7.81234 23.4375C7.81234 22.7468 8.0867 22.0845 8.57508 21.5961C9.06346 21.1077 9.72584 20.8333 10.4165 20.8333C11.1072 20.8333 11.7696 21.1077 12.2579 21.5961C12.7463 22.0845 13.0207 22.7468 13.0207 23.4375C13.0207 24.1282 12.7463 24.7906 12.2579 25.2789C11.7696 25.7673 11.1072 26.0417 10.4165 26.0417C9.72584 26.0417 9.06346 25.7673 8.57508 25.2789C8.0867 24.7906 7.81234 24.1282 7.81234 23.4375ZM2.604 35.9375V40.1042C2.604 40.9688 3.30192 41.6667 4.1665 41.6667H16.6665C17.5311 41.6667 18.229 40.9688 18.229 40.1042V35.9375C18.229 32.7813 15.6561 30.2083 12.4998 30.2083H8.33317C6.81455 30.2111 5.35891 30.8156 4.28508 31.8894C3.21125 32.9632 2.60676 34.4189 2.604 35.9375ZM5.729 35.9375C5.729 35.2468 6.00337 34.5845 6.49175 34.0961C6.98012 33.6077 7.6425 33.3333 8.33317 33.3333H12.4998C13.1905 33.3333 13.8529 33.6077 14.3413 34.0961C14.8296 34.5845 15.104 35.2468 15.104 35.9375V38.5417H5.729V35.9375ZM39.5832 17.7083C36.4269 17.7083 33.854 20.2813 33.854 23.4375C33.854 26.5938 36.4269 29.1667 39.5832 29.1667C42.7394 29.1667 45.3123 26.5938 45.3123 23.4375C45.3123 20.2813 42.7394 17.7083 39.5832 17.7083ZM39.5832 26.0417C38.8925 26.0417 38.2301 25.7673 37.7417 25.2789C37.2534 24.7906 36.979 24.1282 36.979 23.4375C36.979 22.7468 37.2534 22.0845 37.7417 21.5961C38.2301 21.1077 38.8925 20.8333 39.5832 20.8333C40.2738 20.8333 40.9362 21.1077 41.4246 21.5961C41.913 22.0845 42.1873 22.7468 42.1873 23.4375C42.1873 24.1282 41.913 24.7906 41.4246 25.2789C40.9362 25.7673 40.2738 26.0417 39.5832 26.0417ZM41.6665 30.2083H37.4998C35.9812 30.2111 34.5256 30.8156 33.4517 31.8894C32.3779 32.9632 31.7734 34.4189 31.7707 35.9375V40.1042C31.7707 40.9688 32.4686 41.6667 33.3332 41.6667H45.8332C46.6978 41.6667 47.3957 40.9688 47.3957 40.1042V35.9375C47.3957 32.7813 44.8228 30.2083 41.6665 30.2083ZM44.2707 38.5417H34.8957V35.9375C34.8957 35.2468 35.17 34.5845 35.6584 34.0961C36.1468 33.6077 36.8092 33.3333 37.4998 33.3333H41.6665C42.3572 33.3333 43.0196 33.6077 43.5079 34.0961C43.9963 34.5845 44.2707 35.2468 44.2707 35.9375V38.5417ZM30.729 14.0625C30.729 10.9063 28.1561 8.33334 24.9998 8.33334C21.8436 8.33334 19.2707 10.9063 19.2707 14.0625C19.2707 17.2188 21.8436 19.7917 24.9998 19.7917C28.1561 19.7917 30.729 17.2188 30.729 14.0625ZM22.3957 14.0625C22.3957 13.3718 22.67 12.7095 23.1584 12.2211C23.6468 11.7327 24.3092 11.4583 24.9998 11.4583C25.6905 11.4583 26.3529 11.7327 26.8413 12.2211C27.3296 12.7095 27.604 13.3718 27.604 14.0625C27.604 14.7532 27.3296 15.4156 26.8413 15.9039C26.3529 16.3923 25.6905 16.6667 24.9998 16.6667C24.3092 16.6667 23.6468 16.3923 23.1584 15.9039C22.67 15.4156 22.3957 14.7532 22.3957 14.0625ZM31.2498 32.2917C32.1144 32.2917 32.8123 31.5938 32.8123 30.7292V26.5625C32.8123 23.4063 30.2394 20.8333 27.0832 20.8333H22.9165C21.3979 20.8361 19.9422 21.4406 18.8684 22.5144C17.7946 23.5882 17.1901 25.0439 17.1873 26.5625V30.7292C17.1873 31.5938 17.8853 32.2917 18.7498 32.2917H31.2498ZM20.3123 26.5625C20.3123 25.8718 20.5867 25.2095 21.0751 24.7211C21.5635 24.2327 22.2258 23.9583 22.9165 23.9583H27.0832C27.7738 23.9583 28.4362 24.2327 28.9246 24.7211C29.413 25.2095 29.6873 25.8718 29.6873 26.5625V29.1667H20.3123V26.5625Z" fill="#400101"/>
</svg>
