<svg width="110" height="108" viewBox="0 0 110 108" fill="none" xmlns="http://www.w3.org/2000/svg">
<path d="M27.5063 107.738C25.9441 104.576 22.6763 97.6265 21.0937 94.6292C20.3352 93.1942 19.5767 91.7468 18.5598 90.443C16.4606 87.9213 13.3773 86.0885 10.0767 85.7605C8.48997 85.5596 6.81712 86.0639 5.29597 85.6539C3.84044 85.2357 2.6022 84.1451 1.81088 82.833L1.48288 82.6485C1.53618 82.6075 1.6264 82.6034 1.6756 82.6321C1.6961 82.6362 1.72068 82.6813 1.70838 82.6567L1.67968 82.5993C1.10156 81.525 0.986778 80.2498 1.05648 79.0444C1.07698 78.5237 1.26968 77.8143 1.51979 77.1788C1.9544 76.0143 2.71291 75.1246 2.96712 73.8166C3.01221 73.4886 2.97942 73.1114 2.92202 72.7957C2.86462 72.4759 2.80311 72.1397 2.6801 71.8363V71.8239H2.67192C2.67192 71.828 2.68011 71.828 2.63091 71.7542C2.5571 71.6312 2.36851 71.5451 2.2537 71.5533L2.66371 71.8117L2.34799 71.0121C2.32339 70.9465 2.2906 70.8727 2.2742 70.8194C2.266 70.7907 2.26601 70.7866 2.26191 70.7661C2.26191 70.7784 2.26191 70.7825 2.26191 70.7784C2.27421 70.6882 2.34801 70.5242 2.4341 70.4381C2.52841 70.3274 2.52842 70.3438 2.72522 70.3028C4.19716 70.2331 5.6199 70.6882 7.21074 70.6103C8.92049 70.475 11.0402 70.0691 12.1882 68.6463C12.6762 67.937 12.217 67.1702 11.606 66.8012C10.3555 66.1165 9.09678 65.4071 7.79295 64.5543C7.64535 64.4518 7.47723 64.3247 7.29272 64.3329L7.61665 64.4354C7.12054 64.0787 6.6244 63.7301 6.19389 63.3611C5.55428 62.7994 5.20167 62.332 5.47227 61.6145C5.54198 61.4218 5.65678 61.3397 5.68138 61.3438C6.75151 61.3684 7.52643 60.3475 7.60023 59.3553C7.71093 58.7812 7.25583 58.0637 6.99342 57.7111C6.1447 56.358 5.07458 54.8163 5.82491 53.205C6.75562 51.1016 9.30999 50.22 11.1796 48.9818C13.3445 47.7353 15.9317 46.0624 16.3212 43.3194C16.5467 42.0852 16.7148 40.9454 17.0428 39.7563C18.7033 33.5199 22.9838 27.6648 29.1463 25.3564C30.9135 24.7373 32.9184 24.2986 34.3534 22.966C37.1579 20.3706 38.8759 16.8116 40.2412 13.3059C40.5077 12.6294 41.1514 10.6777 41.5368 9.98475C43.96 5.98296 49.2983 4.6955 53.6772 4.08867C60.7294 3.28093 68.331 4.31419 74.1327 8.6399C78.0442 11.4731 81.3857 15.0895 84.756 18.5706C86.4453 20.346 88.1509 22.1049 89.7869 23.909C99.7337 34.4137 105.646 49.1499 103.686 63.6646C101.837 78.5114 92.333 91.2097 77.954 95.9249C74.4607 97.1058 70.7665 97.0197 67.1379 96.745C65.9406 96.6712 64.6573 96.5563 63.4642 96.3964C62.148 95.9249 57.0557 94.0839 57.1746 97.2247C57.3837 98.9919 58.4498 100.517 59.4297 101.932C60.2497 103.059 61.1517 104.125 62.0989 105.146C61.1763 104.105 60.303 103.018 59.5117 101.874C55.7109 96.257 57.0639 94.3381 63.3945 96.7613L63.4601 96.7737C63.4601 96.7737 63.4601 96.7736 63.4888 96.7818L63.5462 96.7901L63.661 96.8064C66.0145 97.1386 68.4048 97.3067 70.7788 97.4297C78.2943 97.8028 85.3669 94.0552 91.1194 89.5122C100.718 81.4717 105.646 68.7816 105.322 56.3908C105.183 48.9038 102.924 41.6137 99.541 34.9755C96.1379 28.3003 90.9677 22.8635 85.8549 17.5209C78.3435 9.66494 72.5541 3.17844 60.9836 2.33379C54.3783 1.78437 43.8575 2.92013 40.1551 9.23033C39.6508 10.198 39.1711 11.7191 38.7816 12.7524C38.3592 13.884 37.8918 14.9911 37.367 16.0612C36.0386 18.5624 34.5666 21.3464 31.9959 22.7405C30.3722 23.499 28.4657 23.8434 26.8625 24.7291C20.5894 27.9231 16.518 34.4425 15.2551 41.2406L14.9394 43.0447C14.7426 44.1558 14.2096 45.0661 13.3814 45.8C11.5855 47.3171 9.32639 48.4118 7.30914 49.7403C5.90691 50.63 4.60716 52.0036 4.33246 53.7298C3.97985 55.7143 5.44769 57.4855 6.36201 59.0395C6.46042 59.3593 6.2472 59.8555 6.01759 60.0441C5.85769 60.1548 5.96839 60.1015 5.37798 60.1999C4.36115 60.5566 4.16435 61.4996 4.22585 62.4017C4.49646 63.8491 5.91508 64.583 6.96062 65.3702L7.28454 65.4727C7.17793 65.4809 7.05083 65.4317 6.97703 65.3825L6.98932 65.3907C8.02254 66.0632 9.15418 66.7069 10.2284 67.3137C10.6056 67.5023 11.114 67.6786 11.3272 68.0108C11.3518 67.9657 11.2698 68.1707 11.0853 68.3183C10.0029 69.167 8.53505 69.5155 7.16151 69.618C6.02988 69.6713 4.84908 69.454 3.59855 69.3597C2.98354 69.331 2.15939 69.2572 1.70428 69.8476C1.45827 70.1511 1.27788 70.5324 1.33528 70.9547C1.38448 71.2499 1.73298 71.9552 1.83548 72.2463L2.24549 72.5046C2.12249 72.5292 1.86008 72.3652 1.83138 72.2422C1.92568 72.4759 1.97079 72.7342 2.01999 72.9802C2.05689 73.2344 2.1102 73.4804 2.0733 73.7305C2.00769 74.2021 1.75349 74.7187 1.48698 75.2435C0.929367 76.3137 0.392235 77.4863 0.244637 78.7164C0.125732 80.1186 0.269257 81.7341 1.00317 83.0175C1.07697 83.1938 1.30657 83.407 1.48288 83.4521L1.15488 83.2717C2.061 84.6986 3.43453 85.8917 5.12377 86.3468C6.78022 86.7692 8.39565 86.2197 10.0316 86.3837C11.6019 86.4945 13.1395 86.9906 14.5253 87.7696C15.903 88.5527 17.2314 89.4876 18.2318 90.734C19.7201 92.6119 20.8026 94.8384 21.9465 96.9541C22.7255 98.5244 26.6493 106.073 27.5063 107.762" fill="#F2F2F2"/>
<path d="M22.5655 41.8558C20.9213 39.289 18.1087 38.4526 17.2271 38.1861C16.6654 38.018 15.6527 37.7638 15.5789 37.9401C15.5297 38.059 15.9274 38.3255 17.5961 39.371C19.8922 40.8102 20.0316 40.8635 20.5318 41.2776C21.438 42.028 22.2785 42.8398 22.2785 42.8398C22.9509 43.4876 23.2666 43.8526 23.365 43.791C23.5044 43.7008 23.1067 42.7004 22.5696 41.8598L22.5655 41.8558Z" fill="#F2F2F2"/>
<path d="M13.0205 46.579C13.1271 47.6 14.4843 47.9854 14.9763 48.1248C15.7676 48.3503 17.1411 48.461 17.4363 47.8583C17.7848 47.149 16.3867 45.9189 16.2473 45.7959C15.6733 45.2916 14.9722 44.6724 14.1726 44.9102C13.4879 45.1112 12.9467 45.8779 13.0205 46.5749V46.579Z" fill="#F2F2F2"/>
<path d="M5.45179 60.3354C5.87 60.2206 6.33332 60.278 6.92374 60.5855C8.00616 61.1473 8.66218 62.1067 10.335 64.7308C10.9787 65.7354 12.8935 68.7613 12.2539 67.7527C12.0202 67.2853 11.0443 66.945 9.19108 66.252C7.68634 65.6862 6.83762 65.2557 6.0627 64.7554C5.42718 64.3413 5.18529 64.1035 5.00078 63.8739C4.92698 63.7796 3.80355 62.3117 4.41037 61.1432C4.71788 60.5486 5.38208 60.3559 5.44768 60.3395" fill="#F2F2F2"/>
<path d="M10.3103 69.167C10.3103 69.167 8.54319 69.5893 6.78834 69.5524C5.67311 69.5278 5.3287 69.3351 3.27044 69.2531C2.55292 69.2244 2.17983 69.2285 1.82312 69.4745C1.0851 69.9871 0.720195 71.3483 1.26551 72.074C1.63862 72.5702 2.36842 72.5538 3.83626 72.5292C3.83626 72.5292 5.47632 72.5005 7.03026 71.8608C7.21066 71.787 7.37055 71.705 7.37055 71.705C7.50585 71.6353 7.62065 71.5574 7.88306 71.3975C8.33407 71.1269 9.44111 70.5119 9.74042 70.3479C11.2411 69.5114 12.3645 67.7319 12.2579 67.6335L10.3103 69.167Z" fill="#F2F2F2"/>
<path d="M29.6834 24.4791C29.4579 23.7657 29.2078 22.7119 29.1996 21.4286C29.1914 20.6454 29.4661 17.6031 31.3275 14.9584C33.148 12.3712 35.444 13.6341 37.3506 10.9894C39.0193 8.66873 37.7278 7.04094 39.2531 5.37216C41.1883 3.25646 43.6689 5.42547 48.2446 3.8182C52.1151 2.45693 52.193 0.251015 55.3378 0.0173035C58.0438 -0.183606 58.2735 1.42777 61.6601 1.60408C65.6331 1.81319 66.5639 -0.335317 69.0731 0.603629C71.5209 1.51797 71.2708 3.8018 73.9236 4.69564C76.2073 5.46648 76.9125 3.94939 79.1225 4.65052C82.0377 5.57717 81.6399 8.47601 84.7355 9.98078C87.5851 11.3666 88.9873 9.41905 91.3203 10.932C93.6984 12.4737 92.6815 14.778 95.2318 17.1889C97.9543 19.768 100.451 18.3985 101.87 20.752C103.096 22.7857 101.448 24.1552 102.35 27.3369C103.412 31.0968 106.195 30.9164 107.298 34.2458C108.504 37.8867 105.523 39.1373 105.781 44.1436C106.081 49.9577 110.271 51.4584 109.32 55.6611C108.606 58.806 105.986 59.1709 105.921 62.1394C105.855 65.1449 108.524 65.6574 108.602 68.3881C108.713 72.1931 103.576 72.7835 100.861 79.0445C99.0613 83.1939 100.623 84.3051 98.68 86.8677C95.9821 90.4185 92.7102 88.5447 88.3231 92.5547C85.371 95.2526 85.6786 97.1756 83.2759 97.8521C81.2586 98.4221 80.1803 97.3068 76.0146 97.3478C75.4529 97.3519 74.7354 97.3806 72.1031 97.7209C63.0255 98.8854 60.262 100.009 58.5564 98.2703C57.8716 97.5733 58.1545 97.2248 57.4288 95.5273C54.8089 89.4139 48.8637 90.1315 47.9576 85.1456C47.523 82.7511 47.8305 79.4218 48.9375 77.3963C49.4582 76.4491 49.7493 75.8546 50.2373 75.5635C50.7867 75.2354 51.0737 75.3953 51.5862 75.1862C52.6604 74.7475 52.8695 73.4477 53.5993 71.8487C54.6735 69.5075 55.3173 69.9298 55.9979 68.1995C56.7277 66.3462 57.0188 63.2383 55.4198 61.6966C54.161 60.4829 52.2094 60.6961 51.4796 60.7822C48.9129 61.0857 47.8551 62.7134 46.7316 62.1476C46.1125 61.836 45.7271 60.9873 45.5631 59.2488C45.0957 54.3326 47.3344 52.1226 47.6993 48.2151C48.0642 44.2789 46.2929 41.1669 44.5422 38.0753C41.5901 32.8722 37.2932 30.1825 35.6122 29.2476C35.5507 29.2148 35.3785 29.1287 35.1366 28.9934C33.4104 28.0258 32.1476 26.9433 31.2783 26.0782" fill="#F2F2F2"/>
<path d="M47.8795 73.9889C45.2841 74.157 42.9388 75.6741 41.4218 77.7488C38.2565 81.9802 38.5148 88.3355 41.9302 92.4029C45.8294 97.1222 52.5167 96.745 56.0264 91.7756C59.2327 87.3433 58.7899 80.664 54.9194 76.8222C53.0866 74.9525 50.4953 73.7962 47.8795 73.993M47.8877 74.157C55.9239 74.0791 58.6504 85.121 54.6897 90.853C51.8648 95.2813 46.182 95.6462 42.7338 91.7059C37.744 86.3838 39.6587 74.7844 47.8877 74.157Z" fill="#F25116"/>
<path d="M81.0414 21.4858L83.2596 32.2981L93.436 34.6188L83.4236 36.6319L81.0414 45.718V21.4858Z" fill="#F25116"/>
<path d="M81.0415 21.4858L78.8275 32.2981L68.6469 34.6188L78.6593 36.6319L81.0415 45.718V21.4858Z" fill="#F25116"/>
</svg>
