<svg width="120" height="120" viewBox="0 0 120 120" fill="none" xmlns="http://www.w3.org/2000/svg">
<path d="M117.016 58.3542L108.954 50.2913C81.898 23.2362 38.1054 23.2327 11.0465 50.2913L2.9837 58.3542C2.06547 59.2726 2.09986 60.7615 2.9837 61.6458L11.0463 69.7085C38.101 96.7634 81.8941 96.7678 108.953 69.7085L117.016 61.6458C117.934 60.7285 117.901 59.2394 117.016 58.3542ZM105.69 66.4449C80.4382 91.6971 39.5645 91.6996 14.3101 66.4449L7.86493 59.9998L14.3101 53.5548C39.5613 28.3034 80.4352 28.2997 105.69 53.5548L112.135 59.9998L105.69 66.4449Z" fill="black"/>
<path d="M60.0002 39.2167C48.548 39.2167 39.231 48.5338 39.231 59.9859C39.231 71.4381 48.548 80.7551 60.0002 80.7551C71.4523 80.7551 80.7694 71.4381 80.7694 59.9859C80.7694 48.5338 71.4523 39.2167 60.0002 39.2167ZM60.0002 76.1395C51.093 76.1395 43.8463 68.8929 43.8463 59.9857C43.8463 51.0785 51.093 43.8318 60.0002 43.8318C68.9074 43.8318 76.154 51.0785 76.154 59.9857C76.154 68.8929 68.9074 76.1395 60.0002 76.1395Z" fill="black"/>
</svg>
