<svg width="38" height="38" viewBox="0 0 38 38" fill="none" xmlns="http://www.w3.org/2000/svg">
<path d="M18.9999 33.9406C18.7929 33.9406 18.5845 33.8908 18.3932 33.7925C16.2544 32.6769 13.8778 32.0943 11.4654 32.0943C9.05312 32.0943 6.67648 32.6769 4.53764 33.7925C4.33777 33.8961 4.11462 33.9465 3.88963 33.939C3.66464 33.9314 3.44537 33.8662 3.25287 33.7495C3.06037 33.6328 2.90111 33.4685 2.79039 33.2725C2.67967 33.0765 2.6212 32.8553 2.62061 32.6302V7.73367C2.62059 7.52231 2.67171 7.31408 2.7696 7.12675C2.86748 6.93943 3.00923 6.77856 3.18274 6.65787C8.13716 3.21036 14.7937 3.21036 19.7494 6.65787C20.1006 6.90291 20.3103 7.30518 20.3103 7.73367V32.6302C20.3103 32.9777 20.1722 33.311 19.9265 33.5568C19.6807 33.8025 19.3474 33.9406 18.9999 33.9406ZM11.4654 29.4736C13.5751 29.4736 15.6861 29.8523 17.6896 30.6097V8.44125C15.815 7.29723 13.6615 6.69197 11.4654 6.69197C9.26938 6.69197 7.11582 7.29723 5.2413 8.44125V30.6097C7.23038 29.8582 9.33914 29.4733 11.4654 29.4736Z" fill="#400101"/>
<path d="M34.069 33.9406C33.862 33.9406 33.6536 33.8908 33.4623 33.7925C31.3235 32.6769 28.9468 32.0943 26.5345 32.0943C24.1222 32.0943 21.7456 32.6769 19.6067 33.7925C19.4069 33.8961 19.1837 33.9465 18.9587 33.939C18.7337 33.9314 18.5145 33.8662 18.322 33.7495C18.1295 33.6328 17.9702 33.4685 17.8595 33.2725C17.7488 33.0765 17.6903 32.8553 17.6897 32.6302V7.73367C17.6897 7.52231 17.7408 7.31408 17.8387 7.12675C17.9366 6.93943 18.0783 6.77856 18.2518 6.65787C23.2062 3.21036 29.8628 3.21036 34.8185 6.65787C35.1697 6.90291 35.3794 7.30518 35.3794 7.73367V32.6302C35.3794 32.9777 35.2413 33.311 34.9956 33.5568C34.7498 33.8025 34.4165 33.9406 34.069 33.9406ZM26.5345 29.4736C28.6442 29.4736 30.7551 29.8523 32.7587 30.6097V8.44125C30.8841 7.29723 28.7306 6.69197 26.5345 6.69197C24.3385 6.69197 22.1849 7.29723 20.3104 8.44125V30.6097C22.2995 29.8582 24.4082 29.4733 26.5345 29.4736Z" fill="#400101"/>
</svg>
