<svg width="110" height="110" viewBox="0 0 110 110" fill="none" xmlns="http://www.w3.org/2000/svg">
<g clip-path="url(#clip0_616_1016)">
<path d="M55.1838 38.3764C56.6978 38.3764 57.9239 37.1496 57.9239 35.6363C57.9239 34.1231 56.6978 32.8962 55.1838 32.8962C43.078 32.8962 33.2639 42.7102 33.2639 54.8169C33.2639 66.9229 43.078 76.737 55.1838 76.737C67.2907 76.737 77.1047 66.9229 77.1047 54.8169C77.1047 53.3031 75.8777 52.077 74.3646 52.077C72.8514 52.077 71.6245 53.3031 71.6245 54.8169C71.6245 63.8966 64.2644 71.2576 55.1838 71.2576C46.1043 71.2576 38.7433 63.8966 38.7433 54.8169C38.7433 45.7365 46.1043 38.3764 55.1838 38.3764Z" fill="#400101"/>
<path d="M107.465 38.5418C106.989 37.1041 105.438 36.3246 103.999 36.8003C102.595 37.2652 101.812 38.7608 102.231 40.1798C110.425 66.2742 95.9151 94.0702 69.8209 102.265C43.7275 110.459 15.9313 95.9486 7.73714 69.8544C-0.458058 43.7602 14.0531 15.9639 40.1465 7.76961C49.8054 4.73663 60.1619 4.73663 69.8209 7.76961C71.271 8.20681 72.8009 7.38611 73.2384 5.93592C73.6689 4.50743 72.8792 2.99772 71.4599 2.53624C42.4855 -6.55442 11.6269 9.56484 2.53643 38.5401C-6.55424 67.5145 9.56567 98.3731 38.5403 107.464C67.5156 116.554 98.3733 100.435 107.464 71.4597C110.826 60.7446 110.826 49.2571 107.465 38.5418H107.465Z" fill="#400101"/>
<path d="M60.4024 19.5759C60.4166 18.0157 59.2182 16.7116 57.6623 16.595C56.8439 16.5254 56.025 16.4557 55.1847 16.4557C33.9983 16.4557 16.8235 33.6306 16.8235 54.817C16.8235 76.0027 33.9983 93.1775 55.1847 93.1775C76.3704 93.1775 93.5453 76.0027 93.5453 54.8172C93.5453 53.8259 93.4849 52.8357 93.3633 51.8521C93.1442 50.3482 91.7477 49.3066 90.2438 49.5258C88.7399 49.7438 87.6983 51.1414 87.9166 52.6453C87.925 52.7022 87.9351 52.7583 87.9467 52.8155C88.0064 53.4793 88.065 54.1372 88.065 54.8155C88.0659 72.9756 73.345 87.6964 55.1856 87.6982C37.0255 87.699 22.3044 72.9771 22.3037 54.8178C22.3029 36.6586 37.0229 21.9366 55.1832 21.936H55.1838C55.8638 21.936 56.5223 21.9946 57.1847 22.0533L57.6982 22.0962C59.1301 22.1575 60.3401 21.0463 60.4007 19.6146C60.4015 19.6011 60.4015 19.5886 60.4024 19.5759Z" fill="#400101"/>
<path d="M71.6245 24.6759V34.5017L53.2468 52.8793C52.1584 53.9307 52.1283 55.6656 53.1797 56.754C54.2314 57.8424 55.9663 57.8727 57.0544 56.8212C57.0772 56.7993 57.0998 56.7767 57.1217 56.754L75.4994 38.3765H85.3249C86.0517 38.3765 86.7482 38.0877 87.2628 37.5734L103.703 21.1327C104.773 20.0627 104.773 18.3281 103.703 17.258C103.448 17.0036 103.146 16.8018 102.814 16.6642C102.482 16.5265 102.125 16.4557 101.766 16.4557H93.5452V8.23538C93.5452 6.72224 92.3185 5.49527 90.8042 5.49612C90.0781 5.49629 89.3817 5.78485 88.8683 6.29835L72.4276 22.7391C72.173 22.9932 71.971 23.2951 71.8332 23.6275C71.6954 23.9598 71.6245 24.3161 71.6245 24.6759ZM77.1047 25.8107L88.065 14.8502V19.1959C88.065 20.709 89.292 21.936 90.8051 21.936H95.1508L84.1903 32.8962H77.1047V25.8107Z" fill="#400101"/>
</g>
<defs>
<clipPath id="clip0_616_1016">
<rect width="110" height="110" fill="white"/>
</clipPath>
</defs>
</svg>
