<svg width="100" height="100" viewBox="0 0 100 100" fill="none" xmlns="http://www.w3.org/2000/svg">
<g clip-path="url(#clip0_616_1037)">
<path d="M99.6718 45.4781L87.1718 20.4781C86.9122 19.9586 86.513 19.5218 86.019 19.2165C85.525 18.9113 84.9557 18.7497 84.3749 18.75H15.625C14.4406 18.75 13.3593 19.4188 12.8281 20.4781L0.328076 45.4781C0.309326 45.5125 0.309326 45.55 0.293701 45.5875C0.249951 45.6813 0.234326 45.7812 0.199951 45.8813C0.108073 46.1444 0.0523553 46.4188 0.0343262 46.6969C0.0312012 46.7594 -0.00317383 46.8125 -0.00317383 46.8781C-0.00317383 46.9375 0.0280762 46.9906 0.0312012 47.05C0.0479684 47.34 0.105838 47.6262 0.203076 47.9C0.231201 47.9844 0.243701 48.0719 0.278076 48.15C0.418701 48.4625 0.599951 48.7594 0.840576 49.0187L47.7218 99.0125C48.0136 99.3246 48.3663 99.5733 48.7582 99.7434C49.1501 99.9135 49.5728 100.001 50 100.001C50.4272 100.001 50.8498 99.9135 51.2417 99.7434C51.6336 99.5733 51.9863 99.3246 52.2781 99.0125L99.1531 49.0125C99.5899 48.5466 99.8734 47.9581 99.9656 47.3262C100.058 46.6943 99.9542 46.0494 99.6687 45.4781H99.6718ZM50 27.7719L59.9874 43.75H40.0156L50 27.7719ZM34.1406 41.3563L21.875 25.0031H44.3625L34.1406 41.3563ZM55.6375 25.0031H78.1249L65.8593 41.3563L55.6375 25.0031ZM61.3843 50.0031L50 86.4094L38.6156 50.0031H61.3843ZM42.9812 84.825L10.3375 50H32.0906L42.9812 84.825ZM67.9093 50.0031H89.6624L57.0187 84.825L67.9093 50.0031ZM91.8187 43.7531H71.8749L83.8406 27.7969L91.8187 43.7531ZM16.1593 27.7938L28.125 43.75H8.1812L16.1593 27.7938ZM50 12.5C50.8288 12.5 51.6236 12.1708 52.2097 11.5847C52.7957 10.9987 53.125 10.2038 53.125 9.375V3.125C53.125 2.2962 52.7957 1.50134 52.2097 0.915291C51.6236 0.32924 50.8288 0 50 0C49.1711 0 48.3763 0.32924 47.7902 0.915291C47.2042 1.50134 46.875 2.2962 46.875 3.125V9.375C46.875 10.2038 47.2042 10.9987 47.7902 11.5847C48.3763 12.1708 49.1711 12.5 50 12.5ZM32.1656 11.5844C32.4551 11.8756 32.7994 12.1067 33.1785 12.2644C33.5577 12.4221 33.9643 12.5032 34.375 12.5032C34.7856 12.5032 35.1922 12.4221 35.5714 12.2644C35.9505 12.1067 36.2948 11.8756 36.5843 11.5844C36.8748 11.2944 37.1052 10.95 37.2624 10.5709C37.4197 10.1918 37.5006 9.78542 37.5006 9.375C37.5006 8.96458 37.4197 8.55819 37.2624 8.17908C37.1052 7.79997 36.8748 7.45559 36.5843 7.16563L33.4593 4.04063C32.8734 3.45466 32.0786 3.12547 31.25 3.12547C30.4213 3.12547 29.6265 3.45466 29.0406 4.04063C28.4546 4.62659 28.1254 5.42132 28.1254 6.25C28.1254 7.07868 28.4546 7.87341 29.0406 8.45938L32.1656 11.5844ZM65.6249 12.5C66.0354 12.5004 66.4418 12.4198 66.821 12.2626C67.2001 12.1055 67.5445 11.875 67.8343 11.5844L70.9593 8.45938C71.5453 7.87341 71.8745 7.07868 71.8745 6.25C71.8745 5.42132 71.5453 4.62659 70.9593 4.04063C70.3734 3.45466 69.5786 3.12547 68.7499 3.12547C67.9213 3.12547 67.1265 3.45466 66.5406 4.04063L63.4156 7.16563C62.9771 7.60207 62.6783 8.15895 62.5569 8.76556C62.4355 9.37217 62.4971 10.0012 62.7338 10.5727C62.9705 11.1443 63.3717 11.6326 63.8865 11.9758C64.4012 12.3189 65.0063 12.5014 65.6249 12.5Z" fill="black"/>
</g>
<defs>
<clipPath id="clip0_616_1037">
<rect width="100" height="100" fill="white"/>
</clipPath>
</defs>
</svg>
