<svg width="184" height="61" viewBox="0 0 184 61" fill="none" xmlns="http://www.w3.org/2000/svg">
<path d="M77.0474 45.5297C76.798 45.5297 76.594 45.4503 76.4354 45.2917C76.2767 45.133 76.1974 44.929 76.1974 44.6797V22.5797C76.1974 22.3303 76.2767 22.1263 76.4354 21.9677C76.594 21.809 76.798 21.7297 77.0474 21.7297H85.8874C88.1087 21.7297 90.0014 22.0923 91.5654 22.8177C93.1294 23.5203 94.3307 24.563 95.1694 25.9457C96.0081 27.3057 96.4614 28.9943 96.5294 31.0117C96.5521 32.009 96.5634 32.8817 96.5634 33.6297C96.5634 34.3777 96.5521 35.239 96.5294 36.2137C96.4387 38.3217 95.9854 40.067 95.1694 41.4497C94.3761 42.8323 93.2087 43.8637 91.6674 44.5437C90.1487 45.201 88.2787 45.5297 86.0574 45.5297H77.0474ZM82.2834 40.6337H85.8874C86.8621 40.6337 87.6667 40.4863 88.3014 40.1917C88.9587 39.8743 89.446 39.387 89.7634 38.7297C90.1034 38.0723 90.2847 37.211 90.3074 36.1457C90.3527 35.4883 90.3754 34.899 90.3754 34.3777C90.3981 33.8563 90.3981 33.335 90.3754 32.8137C90.3754 32.2923 90.3527 31.7143 90.3074 31.0797C90.262 29.5383 89.8541 28.4163 89.0834 27.7137C88.3354 26.9883 87.2134 26.6257 85.7174 26.6257H82.2834V40.6337ZM108.763 45.8697C107.471 45.8697 106.236 45.711 105.057 45.3937C103.901 45.0537 102.87 44.555 101.963 43.8977C101.057 43.2403 100.331 42.4243 99.7873 41.4497C99.2659 40.475 98.9826 39.3417 98.9373 38.0497C98.9373 37.8457 99.0053 37.6757 99.1413 37.5397C99.2773 37.381 99.4586 37.3017 99.6853 37.3017H104.275C104.593 37.3017 104.831 37.381 104.989 37.5397C105.171 37.6983 105.318 37.9363 105.431 38.2537C105.545 38.8883 105.76 39.4097 106.077 39.8177C106.395 40.203 106.791 40.4977 107.267 40.7017C107.766 40.883 108.321 40.9737 108.933 40.9737C110.067 40.9737 110.939 40.611 111.551 39.8857C112.163 39.1377 112.469 38.0497 112.469 36.6217V26.7957H101.453C101.227 26.7957 101.023 26.7163 100.841 26.5577C100.683 26.399 100.603 26.195 100.603 25.9457V22.5797C100.603 22.3303 100.683 22.1263 100.841 21.9677C101.023 21.809 101.227 21.7297 101.453 21.7297H117.909C118.159 21.7297 118.363 21.809 118.521 21.9677C118.703 22.1263 118.793 22.3303 118.793 22.5797V36.7917C118.793 38.7637 118.363 40.4297 117.501 41.7897C116.64 43.127 115.461 44.147 113.965 44.8497C112.469 45.5297 110.735 45.8697 108.763 45.8697ZM124.163 45.5297C123.913 45.5297 123.709 45.4503 123.551 45.2917C123.392 45.133 123.313 44.929 123.313 44.6797V22.5797C123.313 22.3303 123.392 22.1263 123.551 21.9677C123.709 21.809 123.913 21.7297 124.163 21.7297H140.041C140.29 21.7297 140.494 21.809 140.653 21.9677C140.811 22.1263 140.891 22.3303 140.891 22.5797V25.7757C140.891 26.025 140.811 26.229 140.653 26.3877C140.494 26.5463 140.29 26.6257 140.041 26.6257H129.195V31.2157H139.293C139.542 31.2157 139.746 31.3063 139.905 31.4877C140.063 31.6463 140.143 31.8503 140.143 32.0997V35.0577C140.143 35.2843 140.063 35.4883 139.905 35.6697C139.746 35.8283 139.542 35.9077 139.293 35.9077H129.195V40.6337H140.313C140.562 40.6337 140.766 40.713 140.925 40.8717C141.083 41.0303 141.163 41.2343 141.163 41.4837V44.6797C141.163 44.929 141.083 45.133 140.925 45.2917C140.766 45.4503 140.562 45.5297 140.313 45.5297H124.163ZM145.877 45.5297C145.628 45.5297 145.424 45.4503 145.265 45.2917C145.107 45.133 145.027 44.929 145.027 44.6797V22.5797C145.027 22.3303 145.107 22.1263 145.265 21.9677C145.424 21.809 145.628 21.7297 145.877 21.7297H150.365C150.592 21.7297 150.785 21.809 150.943 21.9677C151.125 22.1263 151.215 22.3303 151.215 22.5797V40.3957H161.483C161.733 40.3957 161.937 40.4863 162.095 40.6677C162.277 40.8263 162.367 41.0303 162.367 41.2797V44.6797C162.367 44.929 162.277 45.133 162.095 45.2917C161.937 45.4503 161.733 45.5297 161.483 45.5297H145.877ZM166.165 45.5297C165.915 45.5297 165.711 45.4503 165.553 45.2917C165.394 45.133 165.315 44.929 165.315 44.6797V22.5797C165.315 22.3303 165.394 22.1263 165.553 21.9677C165.711 21.809 165.915 21.7297 166.165 21.7297H170.721C170.97 21.7297 171.174 21.809 171.333 21.9677C171.491 22.1263 171.571 22.3303 171.571 22.5797V44.6797C171.571 44.929 171.491 45.133 171.333 45.2917C171.174 45.4503 170.97 45.5297 170.721 45.5297H166.165Z" fill="#F2811D"/>
<path d="M45.116 60.2537C45.9759 58.5135 47.7749 54.6877 48.6461 53.0377C49.0637 52.2477 49.4813 51.4509 50.041 50.7332C51.1967 49.345 52.8941 48.3361 54.711 48.1555C55.5846 48.0449 56.5055 48.3225 57.3429 48.0968C58.1442 47.8666 58.8258 47.2662 59.2614 46.5439L59.442 46.4423C59.4127 46.4198 59.363 46.4175 59.3359 46.4333C59.3246 46.4356 59.3111 46.4604 59.3179 46.4469L59.3337 46.4153C59.6519 45.8239 59.7151 45.1219 59.6767 44.4583C59.6655 44.1717 59.5594 43.7812 59.4217 43.4313C59.1824 42.7903 58.7649 42.3005 58.6249 41.5805C58.6001 41.3999 58.6181 41.1922 58.6497 41.0184C58.6814 40.8424 58.7152 40.6573 58.7829 40.4903V40.4835H58.7874C58.7874 40.4858 58.7829 40.4858 58.81 40.4451C58.8506 40.3774 58.9545 40.33 59.0177 40.3345L58.792 40.4767L58.9658 40.0366C58.9793 40.0005 58.9974 39.9599 59.0064 39.9305C59.0109 39.9147 59.0109 39.9125 59.0131 39.9012C59.0131 39.9079 59.0131 39.9102 59.0131 39.9079C59.0064 39.8583 58.9657 39.768 58.9184 39.7206C58.8664 39.6596 58.8664 39.6687 58.7581 39.6461C57.9478 39.6077 57.1646 39.8583 56.2888 39.8154C55.3476 39.7409 54.1806 39.5175 53.5486 38.7342C53.28 38.3437 53.5328 37.9217 53.8691 37.7185C54.5576 37.3416 55.2505 36.9511 55.9683 36.4816C56.0495 36.4252 56.1421 36.3552 56.2436 36.3597L56.0653 36.4161C56.3384 36.2198 56.6116 36.0279 56.8486 35.8248C57.2007 35.5155 57.3948 35.2582 57.2458 34.8632C57.2074 34.7571 57.1442 34.712 57.1307 34.7143C56.5416 34.7278 56.115 34.1658 56.0744 33.6196C56.0134 33.3036 56.264 32.9086 56.4084 32.7144C56.8756 31.9696 57.4647 31.1209 57.0517 30.2338C56.5393 29.0759 55.1331 28.5907 54.1039 27.909C52.9121 27.2228 51.4879 26.3019 51.2734 24.7919C51.1493 24.1125 51.0567 23.485 50.8762 22.8305C49.962 19.3974 47.6056 16.1742 44.2131 14.9034C43.2403 14.5626 42.1366 14.321 41.3466 13.5875C39.8027 12.1587 38.8569 10.1995 38.1053 8.26968C37.9586 7.89725 37.6042 6.82283 37.392 6.44138C36.0581 4.23841 33.1193 3.5297 30.7087 3.19564C26.8264 2.75099 22.6417 3.31978 19.4478 5.70106C17.2945 7.26074 15.455 9.25153 13.5996 11.1678C12.6696 12.1452 11.7307 13.1135 10.8301 14.1066C5.35427 19.8894 2.09947 28.0015 3.17838 35.9918C4.19635 44.1649 9.42839 51.1552 17.3442 53.751C19.2672 54.401 21.3009 54.3536 23.2985 54.2024C23.9576 54.1618 24.6641 54.0985 25.3209 54.0105C26.0454 53.7509 28.8488 52.7375 28.7833 54.4664C28.6682 55.4393 28.0814 56.2789 27.5419 57.0576C27.0905 57.6783 26.5939 58.2652 26.0725 58.8272C26.5804 58.2539 27.0611 57.6558 27.4968 57.0261C29.5891 53.9338 28.8443 52.8774 25.3593 54.2114L25.3231 54.2182C25.3231 54.2182 25.3232 54.2182 25.3074 54.2227L25.2757 54.2272L25.2125 54.2362C23.9169 54.419 22.601 54.5116 21.2942 54.5793C17.1568 54.7847 13.2633 52.7217 10.0965 50.2208C4.81256 45.7945 2.09947 38.8087 2.27779 31.9876C2.35453 27.8661 3.59821 23.8529 5.46034 20.1986C7.33377 16.524 10.18 13.531 12.9947 10.59C17.1297 6.26532 20.3168 2.69455 26.6865 2.22958C30.3227 1.92713 36.1145 2.55234 38.1527 6.02607C38.4303 6.55876 38.6944 7.39615 38.9088 7.96494C39.1413 8.58791 39.3986 9.19736 39.6875 9.78647C40.4189 11.1633 41.2292 12.6959 42.6444 13.4634C43.5382 13.8809 44.5878 14.0705 45.4703 14.5581C48.9237 16.3164 51.1651 19.9052 51.8603 23.6475L52.0341 24.6407C52.1424 25.2523 52.4359 25.7534 52.8918 26.1575C53.8804 26.9926 55.1241 27.5953 56.2346 28.3266C57.0066 28.8164 57.7221 29.5725 57.8733 30.5228C58.0674 31.6152 57.2593 32.5903 56.756 33.4457C56.7018 33.6218 56.8192 33.8949 56.9456 33.9988C57.0336 34.0597 56.9727 34.0304 57.2977 34.0845C57.8575 34.2809 57.9658 34.8 57.932 35.2966C57.783 36.0934 57.002 36.4974 56.4265 36.9308L56.2482 36.9872C56.3068 36.9917 56.3768 36.9646 56.4174 36.9376L56.4107 36.942C55.8419 37.3122 55.2189 37.6666 54.6275 38.0007C54.4199 38.1045 54.14 38.2015 54.0226 38.3844C54.0091 38.3595 54.0542 38.4724 54.1558 38.5536C54.7517 39.0209 55.5597 39.2127 56.3159 39.2692C56.9389 39.2985 57.5889 39.1789 58.2773 39.127C58.6159 39.1112 59.0696 39.0705 59.3201 39.3955C59.4556 39.5626 59.5549 39.7725 59.5233 40.005C59.4962 40.1675 59.3043 40.5557 59.2479 40.716L59.0222 40.8582C59.0899 40.8717 59.2344 40.7815 59.2502 40.7137C59.1982 40.8424 59.1734 40.9846 59.1463 41.12C59.126 41.2599 59.0967 41.3954 59.117 41.5331C59.1531 41.7926 59.293 42.077 59.4397 42.3659C59.7467 42.9551 60.0424 43.6006 60.1237 44.2777C60.1891 45.0497 60.1101 45.939 59.7061 46.6455C59.6655 46.7426 59.5391 46.8599 59.442 46.8847L59.6226 46.7854C59.1237 47.5709 58.3676 48.2277 57.4377 48.4783C56.5258 48.7108 55.6365 48.4083 54.7359 48.4986C53.8714 48.5595 53.025 48.8327 52.2621 49.2615C51.5037 49.6926 50.7724 50.2072 50.2216 50.8934C49.4023 51.9272 48.8064 53.1528 48.1766 54.3175C47.7478 55.182 45.5877 59.3374 45.116 60.2673" fill="#F2811D"/>
<path d="M47.836 23.9862C48.7411 22.5732 50.2895 22.1127 50.7748 21.966C51.084 21.8735 51.6415 21.7335 51.6821 21.8306C51.7092 21.896 51.4903 22.0428 50.5716 22.6183C49.3076 23.4106 49.2309 23.4399 48.9555 23.6679C48.4567 24.081 47.994 24.5279 47.994 24.5279C47.6238 24.8845 47.45 25.0854 47.3958 25.0515C47.3191 25.0019 47.538 24.4511 47.8337 23.9884L47.836 23.9862Z" fill="#F2811D"/>
<path d="M53.0905 26.5863C53.0318 27.1483 52.2847 27.3605 52.0138 27.4373C51.5782 27.5614 50.822 27.6224 50.6595 27.2906C50.4677 26.9001 51.2373 26.2229 51.3141 26.1552C51.6301 25.8776 52.0161 25.5368 52.4562 25.6677C52.8331 25.7783 53.1311 26.2004 53.0905 26.5841V26.5863Z" fill="#F2811D"/>
<path d="M57.257 34.1594C57.0268 34.0962 56.7717 34.1278 56.4467 34.2971C55.8508 34.6064 55.4896 35.1345 54.5687 36.5791C54.2144 37.1321 53.1603 38.7978 53.5124 38.2426C53.641 37.9853 54.1783 37.798 55.1985 37.4165C56.0268 37.105 56.4941 36.868 56.9207 36.5926C57.2705 36.3647 57.4037 36.2337 57.5053 36.1074C57.5459 36.0554 58.1643 35.2474 57.8303 34.6041C57.661 34.2768 57.2954 34.1707 57.2592 34.1617" fill="#F2811D"/>
<path d="M54.5828 39.0207C54.5828 39.0207 55.5557 39.2532 56.5217 39.2328C57.1357 39.2193 57.3253 39.1132 58.4583 39.0681C58.8533 39.0523 59.0587 39.0545 59.2551 39.19C59.6614 39.4721 59.8623 40.2215 59.5621 40.621C59.3567 40.8941 58.9549 40.8851 58.1469 40.8715C58.1469 40.8715 57.244 40.8557 56.3885 40.5036C56.2892 40.463 56.2012 40.4178 56.2012 40.4178C56.1267 40.3795 56.0635 40.3366 55.9191 40.2485C55.6708 40.0996 55.0613 39.761 54.8966 39.6707C54.0705 39.2103 53.452 38.2307 53.5107 38.1765L54.5828 39.0207Z" fill="#F2811D"/>
<path d="M43.9175 14.418C44.0416 14.0252 44.1793 13.4451 44.1839 12.7387C44.1884 12.3075 44.0371 10.6328 43.0124 9.17692C42.0102 7.75267 40.7462 8.44786 39.6967 6.992C38.778 5.71447 39.489 4.81839 38.6494 3.89974C37.584 2.73506 36.2184 3.92907 33.6995 3.04428C31.5687 2.29491 31.5258 1.08056 29.7946 0.951908C28.3049 0.841309 28.1785 1.72836 26.3141 1.82542C24.1269 1.94053 23.6146 0.757807 22.2332 1.27469C20.8857 1.77803 21.0234 3.03525 19.563 3.52731C18.3058 3.95165 17.9176 3.11651 16.701 3.50248C15.0962 4.01259 15.3151 5.60839 13.611 6.43676C12.0423 7.19967 11.2703 6.12752 9.986 6.9604C8.67686 7.80908 9.23662 9.0776 7.83269 10.4048C6.33395 11.8245 4.95935 11.0706 4.17838 12.3662C3.5035 13.4858 4.41087 14.2397 3.9143 15.9912C3.3297 18.061 1.79711 17.9617 1.18994 19.7945C0.526341 21.7988 2.16728 22.4872 2.02508 25.2432C1.86031 28.4438 -0.446483 29.2699 0.0771727 31.5835C0.469914 33.3147 1.91223 33.5156 1.94834 35.1498C1.98445 36.8042 0.515057 37.0864 0.472171 38.5896C0.411229 40.6843 3.23942 41.0093 4.73364 44.4559C5.72453 46.7402 4.86456 47.3518 5.93444 48.7625C7.41964 50.7172 9.22083 49.6857 11.636 51.8932C13.2611 53.3784 13.0918 54.437 14.4145 54.8094C15.525 55.1231 16.1186 54.5092 18.4119 54.5318C18.7211 54.534 19.1161 54.5499 20.5652 54.7372C25.5625 55.3782 27.0838 55.9967 28.0228 55.0396C28.3997 54.6559 28.244 54.4641 28.6435 53.5296C30.0858 50.1642 33.3586 50.5592 33.8575 47.8145C34.0967 46.4964 33.9274 44.6636 33.318 43.5486C33.0313 43.0272 32.8711 42.6999 32.6025 42.5396C32.3 42.3591 32.142 42.4471 31.8599 42.332C31.2685 42.0904 31.1534 41.375 30.7516 40.4947C30.1603 39.2059 29.8059 39.4383 29.4312 38.4858C29.0294 37.4656 28.8692 35.7547 29.7495 34.906C30.4424 34.2379 31.5168 34.3552 31.9186 34.4026C33.3315 34.5697 33.9139 35.4658 34.5323 35.1543C34.8732 34.9827 35.0853 34.5155 35.1756 33.5585C35.4329 30.8522 34.2005 29.6356 33.9996 27.4845C33.7988 25.3177 34.7738 23.6045 35.7376 21.9026C37.3628 19.0383 39.7283 17.5577 40.6537 17.043C40.6875 17.025 40.7823 16.9776 40.9155 16.9031C41.8658 16.3704 42.561 15.7745 43.0395 15.2983" fill="#F2811D"/>
<path d="M33.9003 41.6755C35.3291 41.768 36.6202 42.6031 37.4553 43.7452C39.1978 46.0746 39.0556 49.5732 37.1754 51.8122C35.0289 54.4102 31.3475 54.2026 29.4154 51.4669C27.6503 49.027 27.8941 45.3501 30.0248 43.2351C31.0338 42.2059 32.4603 41.5694 33.9003 41.6777M33.8958 41.768C29.4718 41.7251 27.9708 47.8036 30.1512 50.9591C31.7064 53.3968 34.8348 53.5977 36.7331 51.4285C39.48 48.4988 38.4259 42.1133 33.8958 41.768Z" fill="#FBB03B"/>
<path d="M15.6446 12.7729L14.4235 18.725L8.82129 20.0026L14.3332 21.1108L15.6446 26.1126V12.7729Z" fill="#057BB6"/>
<path d="M15.6445 12.7729L16.8634 18.725L22.4678 20.0026L16.9559 21.1108L15.6445 26.1126V12.7729Z" fill="#057BB6"/>
</svg>
