<svg width="35" height="35" viewBox="0 0 35 35" fill="none" xmlns="http://www.w3.org/2000/svg">
<path d="M32.0835 24.7916H2.91683C2.53006 24.7916 2.15912 24.9453 1.88563 25.2188C1.61214 25.4923 1.4585 25.8632 1.4585 26.25C1.4585 26.6368 1.61214 27.0077 1.88563 27.2812C2.15912 27.5547 2.53006 27.7083 2.91683 27.7083H32.0835C32.4703 27.7083 32.8412 27.5547 33.1147 27.2812C33.3882 27.0077 33.5418 26.6368 33.5418 26.25C33.5418 25.8632 33.3882 25.4923 33.1147 25.2188C32.8412 24.9453 32.4703 24.7916 32.0835 24.7916ZM32.0835 30.625H2.91683C2.53006 30.625 2.15912 30.7786 1.88563 31.0521C1.61214 31.3256 1.4585 31.6965 1.4585 32.0833C1.4585 32.4701 1.61214 32.841 1.88563 33.1145C2.15912 33.388 2.53006 33.5416 2.91683 33.5416H32.0835C32.4703 33.5416 32.8412 33.388 33.1147 33.1145C33.3882 32.841 33.5418 32.4701 33.5418 32.0833C33.5418 31.6965 33.3882 31.3256 33.1147 31.0521C32.8412 30.7786 32.4703 30.625 32.0835 30.625ZM8.75016 10.2083C8.46173 10.2083 8.17978 10.2938 7.93996 10.4541C7.70013 10.6143 7.51322 10.8421 7.40284 11.1086C7.29246 11.375 7.26358 11.6683 7.31985 11.9512C7.37612 12.234 7.51501 12.4939 7.71897 12.6978C7.92292 12.9018 8.18277 13.0407 8.46566 13.097C8.74854 13.1532 9.04177 13.1243 9.30824 13.014C9.57472 12.9036 9.80248 12.7167 9.96272 12.4769C10.123 12.237 10.2085 11.9551 10.2085 11.6666C10.2085 11.2799 10.0548 10.9089 9.78136 10.6354C9.50787 10.362 9.13694 10.2083 8.75016 10.2083ZM29.1668 1.45831H5.8335C4.67317 1.45831 3.56038 1.91925 2.7399 2.73972C1.91943 3.56019 1.4585 4.67299 1.4585 5.83331V17.5C1.4585 18.6603 1.91943 19.7731 2.7399 20.5936C3.56038 21.414 4.67317 21.875 5.8335 21.875H29.1668C30.3272 21.875 31.4399 21.414 32.2604 20.5936C33.0809 19.7731 33.5418 18.6603 33.5418 17.5V5.83331C33.5418 4.67299 33.0809 3.56019 32.2604 2.73972C31.4399 1.91925 30.3272 1.45831 29.1668 1.45831ZM30.6252 17.5C30.6252 17.8868 30.4715 18.2577 30.198 18.5312C29.9245 18.8047 29.5536 18.9583 29.1668 18.9583H5.8335C5.44672 18.9583 5.07579 18.8047 4.8023 18.5312C4.52881 18.2577 4.37516 17.8868 4.37516 17.5V5.83331C4.37516 5.44654 4.52881 5.07561 4.8023 4.80212C5.07579 4.52862 5.44672 4.37498 5.8335 4.37498H29.1668C29.5536 4.37498 29.9245 4.52862 30.198 4.80212C30.4715 5.07561 30.6252 5.44654 30.6252 5.83331V17.5ZM17.5002 7.29165C16.6349 7.29165 15.789 7.54824 15.0695 8.02897C14.3501 8.5097 13.7893 9.19298 13.4582 9.99241C13.1271 10.7918 13.0404 11.6715 13.2092 12.5202C13.378 13.3688 13.7947 14.1484 14.4066 14.7602C15.0184 15.3721 15.798 15.7888 16.6466 15.9576C17.4953 16.1264 18.375 16.0398 19.1744 15.7086C19.9738 15.3775 20.6571 14.8167 21.1378 14.0973C21.6186 13.3778 21.8752 12.5319 21.8752 11.6666C21.8752 10.5063 21.4142 9.39353 20.5938 8.57305C19.7733 7.75258 18.6605 7.29165 17.5002 7.29165ZM17.5002 13.125C17.2117 13.125 16.9298 13.0394 16.69 12.8792C16.4501 12.719 16.2632 12.4912 16.1528 12.2247C16.0425 11.9583 16.0136 11.665 16.0698 11.3821C16.1261 11.0992 16.265 10.8394 16.469 10.6354C16.6729 10.4315 16.9328 10.2926 17.2157 10.2363C17.4985 10.1801 17.7918 10.2089 18.0582 10.3193C18.3247 10.4297 18.5525 10.6166 18.7127 10.8564C18.873 11.0963 18.9585 11.3782 18.9585 11.6666C18.9585 12.0534 18.8048 12.4244 18.5314 12.6978C18.2579 12.9713 17.8869 13.125 17.5002 13.125ZM26.2502 10.2083C25.9617 10.2083 25.6798 10.2938 25.44 10.4541C25.2001 10.6143 25.0132 10.8421 24.9028 11.1086C24.7925 11.375 24.7636 11.6683 24.8198 11.9512C24.8761 12.234 25.015 12.4939 25.219 12.6978C25.4229 12.9018 25.6828 13.0407 25.9657 13.097C26.2485 13.1532 26.5418 13.1243 26.8082 13.014C27.0747 12.9036 27.3025 12.7167 27.4627 12.4769C27.623 12.237 27.7085 11.9551 27.7085 11.6666C27.7085 11.2799 27.5548 10.9089 27.2814 10.6354C27.0079 10.362 26.6369 10.2083 26.2502 10.2083Z" fill="#400101"/>
</svg>
